<svg width="59" height="9" viewBox="0 0 59 9" fill="none" xmlns="http://www.w3.org/2000/svg">
<g clip-path="url(#clip0_2202_49)">
<path d="M3.63043 0.0856934H0.5V8.91432H2.58745V6.70717H3.63043C5.35922 6.70717 6.76086 5.22515 6.76086 3.39722C6.76086 1.5693 5.36072 0.0856934 3.63043 0.0856934ZM3.52688 4.61108H2.58745V2.18337H3.52688C4.16017 2.18337 4.67491 2.72762 4.67491 3.39722C4.67491 4.06683 4.16017 4.61108 3.52688 4.61108Z" fill="#D9D9D9"/>
<path d="M38.7134 0.0856934V8.91432H43.8623V6.81665H40.8009V5.54885H43.3055V3.45117H40.8009V2.18178H43.8623V0.0856934H38.7134Z" fill="#D9D9D9"/>
<path d="M34.8927 0.0856934H31.7623V8.91432H33.8497V6.70717H34.8927C36.6215 6.70717 38.0231 5.22515 38.0231 3.39722C38.0231 1.5693 36.623 0.0856934 34.8927 0.0856934ZM34.7892 4.61108H33.8497V2.18337H34.7892C35.4224 2.18337 35.9372 2.72762 35.9372 3.39722C35.9372 4.06683 35.4224 4.61108 34.7892 4.61108Z" fill="#D9D9D9"/>
<path d="M18.1825 0.0126953C15.8385 0.0126953 13.9386 2.02151 13.9386 4.5C13.9386 6.97849 15.8385 8.98731 18.1825 8.98731C20.5266 8.98731 22.4265 6.97849 22.4265 4.5C22.4265 2.02151 20.5266 0.0126953 18.1825 0.0126953ZM18.1825 6.90868C16.9265 6.90868 16.0261 5.75829 16.0261 4.5C16.0261 3.24171 16.9265 2.09133 18.1825 2.09133C19.4386 2.09133 20.339 3.24171 20.339 4.5C20.339 5.75829 19.4386 6.90868 18.1825 6.90868Z" fill="#D9D9D9"/>
<path d="M44.3516 4.5C44.3516 6.97849 46.2514 8.98731 48.5955 8.98731C48.9917 8.98731 49.3759 8.9286 49.739 8.8207V6.54372C49.4134 6.77222 49.0247 6.90709 48.5955 6.90709C47.3394 6.90709 46.439 5.7567 46.439 4.49841C46.439 3.24013 47.3394 2.08974 48.5955 2.08974C49.0262 2.08974 49.4149 2.22461 49.739 2.4531V0.179303C49.3744 0.0714048 48.9917 0.0126953 48.5955 0.0126953C46.2514 0.0126953 44.3516 2.02151 44.3516 4.5Z" fill="#D9D9D9"/>
<path d="M53.2026 2.3531C53.6093 1.92309 54.9839 2.45465 54.9839 2.45465V0.179259C54.9839 0.179259 54.0835 -0.0571652 53.063 0.0126514C51.6629 0.0904018 50.5239 1.1075 50.5239 2.60539C50.5239 4.49996 53.0735 5.9312 52.3967 6.64682C51.975 7.09269 50.5389 6.54527 50.5389 6.54527V8.82224C50.5389 8.82224 51.3567 9.05391 52.5363 8.98885C53.9364 8.9111 55.0769 7.894 55.0769 6.39611C55.0769 4.50154 52.5543 3.04333 53.2041 2.35468L53.2026 2.3531Z" fill="#D9D9D9"/>
<path d="M28.8959 2.3531C29.3026 1.92309 30.6773 2.45465 30.6773 2.45465V0.179259C30.6773 0.179259 29.7769 -0.0571652 28.7564 0.0126514C27.3562 0.0904018 26.2172 1.1075 26.2172 2.60539C26.2172 4.49996 28.7669 5.9312 28.0901 6.64682C27.6684 7.09269 26.2322 6.54527 26.2322 6.54527V8.82224C26.2322 8.82224 27.0501 9.05391 28.2296 8.98885C29.6298 8.9111 30.7688 7.894 30.7688 6.39611C30.7688 4.50154 28.2462 3.04333 28.8959 2.35468V2.3531Z" fill="#D9D9D9"/>
<path d="M57.2394 0.0856934C56.5431 0.0856934 55.9774 0.682308 55.9774 1.42014C55.9774 2.15798 56.5416 2.75459 57.2394 2.75459C57.9373 2.75459 58.5015 2.15798 58.5015 1.42014C58.5015 0.682308 57.9373 0.0856934 57.2394 0.0856934ZM57.2394 2.48802C56.6812 2.48802 56.2295 2.01041 56.2295 1.42014C56.2295 0.829875 56.6812 0.352266 57.2394 0.352266C57.7977 0.352266 58.2494 0.829875 58.2494 1.42014C58.2494 2.01041 57.7977 2.48802 57.2394 2.48802Z" fill="#D9D9D9"/>
<path d="M57.7767 1.16145C57.7767 0.871076 57.5891 0.710815 57.307 0.710815H56.7547V2.12778H57.0323V1.59939H57.1779L57.5095 2.12778H57.8232L57.469 1.57876C57.6566 1.52957 57.7752 1.38677 57.7752 1.16145H57.7767ZM57.2904 1.35662H57.0323V0.961521H57.2904C57.43 0.961521 57.502 1.03927 57.502 1.15986C57.502 1.28046 57.43 1.35662 57.2904 1.35662Z" fill="#D9D9D9"/>
<path d="M11.5676 8.91432H13.9972L11.9442 5.82335C12.7876 5.28069 13.3534 4.30167 13.3534 3.18143C13.3534 1.47251 12.0433 0.0872803 10.427 0.0872803H7.5022V8.91591H9.58965V6.27716H9.81625L11.5691 8.91591L11.5676 8.91432ZM10.0309 2.18178C10.6641 2.18178 11.1789 2.72603 11.1789 3.39564C11.1789 4.06524 10.6641 4.60949 10.0309 4.60949H9.58815V2.18178H10.0294H10.0309Z" fill="#D9D9D9"/>
<path d="M25.5269 3.7876H23.1498V5.43305H25.5269V3.7876Z" fill="#D9D9D9"/>
</g>
<defs>
<clipPath id="clip0_2202_49">
<rect width="58" height="9" fill="white" transform="translate(0.5)"/>
</clipPath>
</defs>
</svg>
