<svg width="16" height="16" viewBox="0 0 16 16" fill="none" xmlns="http://www.w3.org/2000/svg">
<path d="M7.8332 2.00244C8.08633 2.00244 8.2956 2.19045 8.32873 2.43449L8.33333 2.50234L8.33413 7.33577H13.1695C13.4457 7.33577 13.6695 7.55964 13.6695 7.83577C13.6695 8.08891 13.4814 8.29811 13.2374 8.33124L13.1695 8.33577H8.33413L8.33546 13.1685C8.33553 13.4446 8.11173 13.6686 7.8356 13.6686C7.58246 13.6686 7.3732 13.4806 7.34006 13.2366L7.33546 13.1687L7.33413 8.33577H2.50146C2.22532 8.33577 2.00146 8.11191 2.00146 7.83577C2.00146 7.58264 2.18956 7.37344 2.43362 7.34031L2.50146 7.33577H7.33413L7.33333 2.50254C7.33326 2.2264 7.55706 2.00244 7.8332 2.00244Z" fill="#444444"/>
</svg>
